<?xml version="1.0" standalone="yes"?>
<svg xmlns="http://www.w3.org/2000/svg" width="200" height="200">
<path style="fill:#eeedf4; stroke:none;" d="M0 0L0 85C7.2412 83.6357 15.5605 81.3324 21.9452 86.4298C33.5355 95.6832 21.9421 108.809 10 106L12 120L0 119L0 200L200 200L200 117C195.943 119.406 191.939 121.915 187.005 120.566C180.297 118.732 180.712 112.97 186 110C186.079 112.428 185.926 115.49 188.317 116.953C190.528 118.305 194.529 117.153 194.079 114.046C193.28 108.534 183.66 108.527 182.002 102.907C178.967 92.6169 194.331 93.3406 199 98L200 98L200 0L0 0z"/>
<path style="fill:#a6b3a0; stroke:none;" d="M95 57L95 58L100 57L95 57z"/>
<path style="fill:#679541; stroke:none;" d="M96 57L97 60L101 60L96 57z"/>
<path style="fill:#6a6a6e; stroke:none;" d="M99 57L99 58L108 62L104 60L104 58L102 59L99 57z"/>
<path style="fill:#a6b3a0; stroke:none;" d="M102 57L103 58L102 57z"/>
<path style="fill:#6a6a6e; stroke:none;" d="M95 58L95 65L96 65L95 58z"/>
<path style="fill:#679541; stroke:none;" d="M102 58L103 59L102 58M104.333 58.6667L104.667 59.3333L104.333 58.6667z"/>
<path style="fill:#a6b3a0; stroke:none;" d="M97 61L100 60L97 61M106 59L107 60L106 59M94 60L95 61L94 60z"/>
<path style="fill:#eeedf4; stroke:none;" d="M105 77L105 71L107 71L108 74C109.789 69.4057 105.933 58.4386 99.3179 60.7122C91.6342 63.353 100.576 75.7283 105 77z"/>
<path style="fill:#a6b3a0; stroke:none;" d="M102 60L103 61L102 60z"/>
<path style="fill:#679541; stroke:none;" d="M103 60L104 61L103 60M105 60L104 61L109 75L108 75L105 71L107 74L104 73L106 75L106 78L102 78L97 74L97 75L100 79L102 80L110 82L110 83C108.286 83.9509 107.647 85.0806 110 85L110 119L107 124L111 125L113 116L111 114L111 113L116 96L115 93L116 91L120 84L127 78L128 78L130 81L133 79L132 82L135 81L142 83L145 82L130 78L133 76L133 74L135 75L134 72L131 74C130.857 70.1772 131.966 67.5575 136 67L135 65L136 65L144 62C137.159 62.4552 127.975 66.2093 128 74L125 78C119.34 79.68 114.96 86.1673 115 92L110 75C114.628 70.9289 109.046 62.5229 105 60z"/>
<path style="fill:#a6b3a0; stroke:none;" d="M107 60L108 61L107 60z"/>
<path style="fill:#679541; stroke:none;" d="M94 61L95 62L94 61M96 61L96 65L95 65L95 63L94 63L94 70L95 70L97 68L96 61z"/>
<path style="fill:#a6b3a0; stroke:none;" d="M108 61L109 62L108 61M137.667 62.3333L138.333 62.6667L137.667 62.3333M144 62L145 63L144 62z"/>
<path style="fill:#6a6a6e; stroke:none;" d="M107 63L108 64L107 63z"/>
<path style="fill:#a6b3a0; stroke:none;" d="M135 63L136 64L135 63z"/>
<path style="fill:#6a6a6e; stroke:none;" d="M136 63L136 64L139 64L136 63M143 65L148 65L143 65z"/>
<path style="fill:#a6b3a0; stroke:none;" d="M147 63L148 64L147 63M93.3333 64.6667L93.6667 65.3333L93.3333 64.6667M110.333 64.6667L110.667 65.3333L110.333 64.6667M133 64L134 65L133 64z"/>
<path style="fill:#6a6a6e; stroke:none;" d="M134 64L135 65L134 64M139.667 64.3333L140.333 64.6667L139.667 64.3333z"/>
<path style="fill:#679541; stroke:none;" d="M144 65L144 66L148 68L152 69L149 66L149 64L144 65z"/>
<path style="fill:#a6b3a0; stroke:none;" d="M149 64L150 65L149 64M107 65L108 66L107 65z"/>
<path style="fill:#6a6a6e; stroke:none;" d="M132.667 65.3333L133.333 65.6667L132.667 65.3333M135.667 65.3333L136.333 65.6667L135.667 65.3333z"/>
<path style="fill:#a6b3a0; stroke:none;" d="M138.667 65.3333L139.333 65.6667L138.667 65.3333z"/>
<path style="fill:#eeedf4; stroke:none;" d="M131 72L137 72L131 76C135.862 80.6977 151.389 79.9822 149.172 70.108C147.143 61.0712 133.765 67.1533 131 72z"/>
<path style="fill:#a6b3a0; stroke:none;" d="M141 65L141 66L144 66L141 65z"/>
<path style="fill:#6a6a6e; stroke:none;" d="M149 65L150 66L149 65z"/>
<path style="fill:#a6b3a0; stroke:none;" d="M96 66L97 67L96 66z"/>
<path style="fill:#6a6a6e; stroke:none;" d="M109 66L111 68L111 66L109 66M134 66L130 71L134 66z"/>
<path style="fill:#a6b3a0; stroke:none;" d="M146 66L147 67L146 66z"/>
<path style="fill:#6a6a6e; stroke:none;" d="M147 66L148 67L147 66M94 67L95 68L94 67z"/>
<path style="fill:#a6b3a0; stroke:none;" d="M111.333 67.6667L111.667 68.3333L111.333 67.6667z"/>
<path style="fill:#6a6a6e; stroke:none;" d="M130 67L131 68L130 67z"/>
<path style="fill:#a6b3a0; stroke:none;" d="M134 67L135 68L134 67z"/>
<path style="fill:#6a6a6e; stroke:none;" d="M149 67L154 70L154 69L149 67z"/>
<path style="fill:#a6b3a0; stroke:none;" d="M152 67L153 68L152 67z"/>
<path style="fill:#6a6a6e; stroke:none;" d="M95 68L95 72L96 72L97 68L95 68z"/>
<path style="fill:#a6b3a0; stroke:none;" d="M108 68L109 69L108 68z"/>
<path style="fill:#6a6a6e; stroke:none;" d="M109 68L109 71L110 71L109 68z"/>
<path style="fill:#a6b3a0; stroke:none;" d="M149 68L150 69L149 68M153 68L154 69L153 68M128 69L129 70L128 69M150.333 69.6667L150.667 70.3333L150.333 69.6667M94 70L95 71L94 70z"/>
<path style="fill:#679541; stroke:none;" d="M95 73L98 70L95 73z"/>
<path style="fill:#a6b3a0; stroke:none;" d="M127 70L128 71L127 70M131 70L132 71L131 70z"/>
<path style="fill:#679541; stroke:none;" d="M151 73L152 73L154 71C151.687 69.8835 150.988 70.6095 151 73z"/>
<path style="fill:#a6b3a0; stroke:none;" d="M106 71L107 72L106 71z"/>
<path style="fill:#6a6a6e; stroke:none;" d="M110.333 71.6667L110.667 72.3333L110.333 71.6667z"/>
<path style="fill:#a6b3a0; stroke:none;" d="M130 71L130 73L132 73L130 71M134 71L135 72L134 71z"/>
<path style="fill:#6a6a6e; stroke:none;" d="M151 71L152 73L150 72L148 79L149 79L153 71L151 71z"/>
<path style="fill:#a6b3a0; stroke:none;" d="M153 71L154 72L153 71M98 72L99 73L98 72M104 72L105 73L104 72z"/>
<path style="fill:#6a6a6e; stroke:none;" d="M105 72L105 74L107 74L105 72z"/>
<path style="fill:#a6b3a0; stroke:none;" d="M107 72L108 73L107 72M126.333 72.6667L126.667 73.3333L126.333 72.6667z"/>
<path style="fill:#6a6a6e; stroke:none;" d="M127.333 72.6667L127.667 73.3333L127.333 72.6667M134 72L136 75L137 72L134 72z"/>
<path style="fill:#a6b3a0; stroke:none;" d="M149 72L150 73L149 72M95 73L97 75L95 73z"/>
<path style="fill:#6a6a6e; stroke:none;" d="M96 73L96 74L99 74L96 73M131 73L132 74L131 73z"/>
<path style="fill:#679541; stroke:none;" d="M149 73L150 74L149 73z"/>
<path style="fill:#a6b3a0; stroke:none;" d="M152 73L153 74L152 73M103 74L104 75L103 74M108 74L109 75L108 74z"/>
<path style="fill:#6a6a6e; stroke:none;" d="M133 74L134 75L133 74z"/>
<path style="fill:#679541; stroke:none;" d="M136 74L137 75L136 74z"/>
<path style="fill:#a6b3a0; stroke:none;" d="M148 74L147 76L148 74z"/>
<path style="fill:#679541; stroke:none;" d="M150 74L151 75L150 74z"/>
<path style="fill:#6a6a6e; stroke:none;" d="M97 75L99 77L99 75L97 75z"/>
<path style="fill:#a6b3a0; stroke:none;" d="M104 75L105 76L104 75z"/>
<path style="fill:#6a6a6e; stroke:none;" d="M105 75L106 76L105 75M110.333 75.6667L110.667 76.3333L110.333 75.6667z"/>
<path style="fill:#a6b3a0; stroke:none;" d="M111.333 75.6667L111.667 76.3333L111.333 75.6667z"/>
<path style="fill:#6a6a6e; stroke:none;" d="M131 75L132 76L131 75z"/>
<path style="fill:#a6b3a0; stroke:none;" d="M133 75L133 76L136 76L133 75z"/>
<path style="fill:#679541; stroke:none;" d="M148 75L146 81L147 81L148 75z"/>
<path style="fill:#a6b3a0; stroke:none;" d="M151 75L152 76L151 75z"/>
<path style="fill:#6a6a6e; stroke:none;" d="M125 76L126 77L125 76M127 76L128 77L127 76z"/>
<path style="fill:#a6b3a0; stroke:none;" d="M130 76L132 78L130 76z"/>
<path style="fill:#679541; stroke:none;" d="M150 76L151 77L150 76z"/>
<path style="fill:#6a6a6e; stroke:none;" d="M99.6667 77.3333L100.333 77.6667L99.6667 77.3333M102 77L103 78L102 77z"/>
<path style="fill:#a6b3a0; stroke:none;" d="M104.667 77.3333L105.333 77.6667L104.667 77.3333z"/>
<path style="fill:#6a6a6e; stroke:none;" d="M123.667 77.3333L124.333 77.6667L123.667 77.3333M130 77L131 78L130 77z"/>
<path style="fill:#a6b3a0; stroke:none;" d="M145 77L146 78L145 77z"/>
<path style="fill:#6a6a6e; stroke:none;" d="M146 77L147 78L146 77z"/>
<path style="fill:#679541; stroke:none;" d="M149 77L150 78L149 77z"/>
<path style="fill:#6a6a6e; stroke:none;" d="M101 78L102 79L101 78z"/>
<path style="fill:#a6b3a0; stroke:none;" d="M121 78L122 79L121 78M127 78L128 79L127 78M133 78L134 79L133 78M143.667 78.3333L144.333 78.6667L143.667 78.3333M101 79L102 80L101 79z"/>
<path style="fill:#6a6a6e; stroke:none;" d="M103 79L104 80L103 79M105 79L106 80L105 79M122 79L123 80L122 79M131 79L131 81L133 81L133 79L131 79z"/>
<path style="fill:#a6b3a0; stroke:none;" d="M135.667 79.3333L136.333 79.6667L135.667 79.3333M140.667 79.3333L141.333 79.6667L140.667 79.3333z"/>
<path style="fill:#6a6a6e; stroke:none;" d="M143 79L146 81L143 79z"/>
<path style="fill:#a6b3a0; stroke:none;" d="M104 80L105 81L104 80z"/>
<path style="fill:#6a6a6e; stroke:none;" d="M107 80L108 81L107 80M138.667 80.3333L139.333 80.6667L138.667 80.3333z"/>
<path style="fill:#a6b3a0; stroke:none;" d="M97 81L98 82L97 81z"/>
<path style="fill:#6a6a6e; stroke:none;" d="M98 81L99 82L98 81z"/>
<path style="fill:#1b2612; stroke:none;" d="M94 85L98 95C93.4831 95.0005 88.0166 94.3253 84.3403 97.5139C78.5323 102.551 77.8633 116.059 86.0432 119.254C90.4616 120.98 94.3676 118.154 98 116C99.6151 120.85 103.706 119.924 106 116L102 117L101 81L94 85z"/>
<path style="fill:#a6b3a0; stroke:none;" d="M101 81L102 82L101 81M119 81L118 83L119 81z"/>
<path style="fill:#6a6a6e; stroke:none;" d="M133.667 81.3333L134.333 81.6667L133.667 81.3333M142.667 81.3333L143.333 81.6667L142.667 81.3333z"/>
<path style="fill:#a6b3a0; stroke:none;" d="M145 81L146 82L145 81M95 82L96 83L95 82z"/>
<path style="fill:#6a6a6e; stroke:none;" d="M101 82L102 83L101 82z"/>
<path style="fill:#a6b3a0; stroke:none;" d="M107 82L108 83L107 82z"/>
<path style="fill:#6a6a6e; stroke:none;" d="M108.667 82.3333L109.333 82.6667L108.667 82.3333z"/>
<path style="fill:#a6b3a0; stroke:none;" d="M111 82L112 83L111 82z"/>
<path style="fill:#6a6a6e; stroke:none;" d="M119 82L120 83L119 82z"/>
<path style="fill:#a6b3a0; stroke:none;" d="M134 82L135 83L134 82z"/>
<path style="fill:#6a6a6e; stroke:none;" d="M138 82L138 83L141 83L138 82z"/>
<path style="fill:#a6b3a0; stroke:none;" d="M142 82L143 83L142 82M8 83L8 84L11 84L8 83z"/>
<path style="fill:#6a6a6e; stroke:none;" d="M11 83L11 84L14 84L11 83z"/>
<path style="fill:#a6b3a0; stroke:none;" d="M14.6667 83.3333L15.3333 83.6667L14.6667 83.3333z"/>
<path style="fill:#6a6a6e; stroke:none;" d="M94 83L95 84L94 83M121 83L120 85L121 83z"/>
<path style="fill:#a6b3a0; stroke:none;" d="M2.66667 84.3333L3.33333 84.6667L2.66667 84.3333z"/>
<path style="fill:#6a6a6e; stroke:none;" d="M4 84L5 85L4 84z"/>
<path style="fill:#1b2612; stroke:none;" d="M0 86L0 87C8.81288 89.6753 6.57309 112.68 1 118L1 119L12 119C8.79375 110.674 8.83768 102.846 9.00463 94.0008C9.07399 90.3258 10.0643 85.4675 15 86.8511C26.6407 90.1143 20.5438 103.477 11 104C14.9001 109.054 23.1986 105.211 25.2577 99.9846C31.6908 83.6553 9.95154 82.2731 0 86z"/>
<path style="fill:#6a6a6e; stroke:none;" d="M18 84L19 85L18 84z"/>
<path style="fill:#a6b3a0; stroke:none;" d="M19 84L20 85L19 84M93 84L94 85L93 84M121 84L122 85L121 84z"/>
<path style="fill:#6a6a6e; stroke:none;" d="M0 85L1 86L0 85z"/>
<path style="fill:#a6b3a0; stroke:none;" d="M21 85L22 86L21 85M94 85L94 86L97 86L94 85z"/>
<path style="fill:#6a6a6e; stroke:none;" d="M109.333 85.6667L109.667 86.3333L109.333 85.6667z"/>
<path style="fill:#a6b3a0; stroke:none;" d="M116 85L117 86L116 85z"/>
<path style="fill:#6a6a6e; stroke:none;" d="M119 85L120 86L119 85M11 86L12 87L11 86z"/>
<path style="fill:#a6b3a0; stroke:none;" d="M12.6667 86.3333L13.3333 86.6667L12.6667 86.3333z"/>
<path style="fill:#6a6a6e; stroke:none;" d="M14.6667 86.3333L15.3333 86.6667L14.6667 86.3333M22 86L23 87L22 86z"/>
<path style="fill:#a6b3a0; stroke:none;" d="M108.333 86.6667L108.667 87.3333L108.333 86.6667M112 86L112 89L113 89L112 86M0 87L1 88L0 87z"/>
<path style="fill:#6a6a6e; stroke:none;" d="M1 87L1 88L4 88L4 115L5 115C5 108.386 8.30623 89.4249 1 87M9 87L9 113L10 113L9 87z"/>
<path style="fill:#eeedf4; stroke:none;" d="M10 87L10 104C23.9308 103.663 24.1044 87.1666 10 87z"/>
<path style="fill:#a6b3a0; stroke:none;" d="M17 87L18 88L17 87z"/>
<path style="fill:#6a6a6e; stroke:none;" d="M23 87L24 88L23 87M111 87L112 88L111 87z"/>
<path style="fill:#a6b3a0; stroke:none;" d="M115 87L116 88L115 87M119 87L120 88L119 87z"/>
<path style="fill:#eeedf4; stroke:none;" d="M0 88L0 117C7.38044 114.55 4 94.7166 4 88L0 88z"/>
<path style="fill:#a6b3a0; stroke:none;" d="M18 88L19 89L18 88z"/>
<path style="fill:#6a6a6e; stroke:none;" d="M24 88L25 89L24 88M109 88L110 89L109 88M118 88L119 89L118 88z"/>
<path style="fill:#a6b3a0; stroke:none;" d="M19 89L20 90L19 89M25 89L26 90L25 89M114 89L115 90L114 89M118 89L119 90L118 89z"/>
<path style="fill:#6a6a6e; stroke:none;" d="M20 90L21 91L20 90M25 90L26 91L25 90z"/>
<path style="fill:#a6b3a0; stroke:none;" d="M113 91L114 92L113 91z"/>
<path style="fill:#6a6a6e; stroke:none;" d="M114 91L115 92L114 91M116 91L117 92L116 91z"/>
<path style="fill:#a6b3a0; stroke:none;" d="M117 91L118 92L117 91M26 92L27 93L26 92M109 92L109 96L110 96L109 92z"/>
<path style="fill:#6a6a6e; stroke:none;" d="M21 93L21 98L22 98L21 93M26 93L26 97L27 97L26 93M115.333 93.6667L115.667 94.3333L115.333 93.6667z"/>
<path style="fill:#a6b3a0; stroke:none;" d="M116 93L117 94L116 93z"/>
<path style="fill:#6a6a6e; stroke:none;" d="M43.6667 94.3333L44.3333 94.6667L43.6667 94.3333z"/>
<path style="fill:#679541; stroke:none;" d="M45 94L46 95L45 94z"/>
<path style="fill:#a6b3a0; stroke:none;" d="M46 94L47 95L46 94M60 94L61 95L60 94z"/>
<path style="fill:#6a6a6e; stroke:none;" d="M61 94L61 95L65 95L61 94z"/>
<path style="fill:#a6b3a0; stroke:none;" d="M65.6667 94.3333L66.3333 94.6667L65.6667 94.3333M89 94L90 95L89 94z"/>
<path style="fill:#6a6a6e; stroke:none;" d="M90 94L90 95L95 95L90 94z"/>
<path style="fill:#a6b3a0; stroke:none;" d="M95.6667 94.3333L96.3333 94.6667L95.6667 94.3333z"/>
<path style="fill:#6a6a6e; stroke:none;" d="M97 94L98 95L97 94z"/>
<path style="fill:#a6b3a0; stroke:none;" d="M126 94L127 95L126 94z"/>
<path style="fill:#6a6a6e; stroke:none;" d="M127 94L128 95L127 94z"/>
<path style="fill:#1b2612; stroke:none;" d="M128 94.5478C112.341 97.9497 116.822 123.771 133 120.652C148.937 117.579 144.23 91.0218 128 94.5478z"/>
<path style="fill:#6a6a6e; stroke:none;" d="M133 94L134 95L133 94z"/>
<path style="fill:#a6b3a0; stroke:none;" d="M134 94L135 95L134 94M151 94L152 95L151 94z"/>
<path style="fill:#1b2612; stroke:none;" d="M147 97C153.034 102.528 148.22 126.914 162.975 119.845C164.924 118.911 166.408 117.414 168 116C168.913 121.468 173.364 121.508 176 117L173 118L172 94L166 95C167.128 100.467 169.352 106.614 166.682 111.995C164.742 115.906 160.097 119.329 156.742 114.847C152.735 109.493 155.842 100.232 154 94L147 97z"/>
<path style="fill:#6a6a6e; stroke:none;" d="M154 94L155 95L154 94z"/>
<path style="fill:#a6b3a0; stroke:none;" d="M155.333 94.6667L155.667 95.3333L155.333 94.6667M166.667 94.3333L167.333 94.6667L166.667 94.3333z"/>
<path style="fill:#6a6a6e; stroke:none;" d="M168.667 94.3333L169.333 94.6667L168.667 94.3333z"/>
<path style="fill:#a6b3a0; stroke:none;" d="M186 94L187 95L186 94z"/>
<path style="fill:#6a6a6e; stroke:none;" d="M187.667 94.3333L188.333 94.6667L187.667 94.3333z"/>
<path style="fill:#1b2612; stroke:none;" d="M186 111C175.425 114.213 187.885 123.906 195.867 119.312C208.584 111.992 187.707 106.214 186.921 100.951C186.064 95.2231 194.216 97.7132 194 104C204.694 100.068 192.661 91.0441 185.148 96.0895C173.788 103.719 193.338 108.822 194.079 114.06C194.957 120.269 186.101 117.226 186 111z"/>
<path style="fill:#6a6a6e; stroke:none;" d="M193 94L194 95L193 94z"/>
<path style="fill:#679541; stroke:none;" d="M194 94L195 95L194 94M33 95L34 96L33 95z"/>
<path style="fill:#1b2612; stroke:none;" d="M30 99C35.199 102.371 34.0423 114.041 30 118L30 119L39 119C37.5132 110.992 36.9258 103.342 44 98L44 104C53.8634 99.0212 42.0603 90.4508 39 101L38 101L37 95L30 99z"/>
<path style="fill:#a6b3a0; stroke:none;" d="M37 95L38 96L37 95z"/>
<path style="fill:#679541; stroke:none;" d="M41 95L42 96L41 95M47 95L48 96L47 95z"/>
<path style="fill:#a6b3a0; stroke:none;" d="M57 95L58 96L57 95z"/>
<path style="fill:#1b2612; stroke:none;" d="M58.0432 95.858C44.6064 101.63 54.1474 126.189 68.9815 118.682C82.1818 112.002 72.4922 89.6511 58.0432 95.858z"/>
<path style="fill:#6a6a6e; stroke:none;" d="M68 95L69 96L68 95z"/>
<path style="fill:#a6b3a0; stroke:none;" d="M86 95L87 96L86 95z"/>
<path style="fill:#6a6a6e; stroke:none;" d="M87 95L88 96L87 95M110 95L111 96L110 95M124 95L125 96L124 95M136 95L137 96L136 95z"/>
<path style="fill:#a6b3a0; stroke:none;" d="M137 95L138 96L137 95z"/>
<path style="fill:#6a6a6e; stroke:none;" d="M149 95L150 96L149 95M165 95L166 96L165 95z"/>
<path style="fill:#a6b3a0; stroke:none;" d="M184 95L185 96L184 95z"/>
<path style="fill:#6a6a6e; stroke:none;" d="M185 95L186 96L185 95M196 95L197 96L196 95M31 96L32 97L31 96M37 96L38 97L37 96z"/>
<path style="fill:#a6b3a0; stroke:none;" d="M40 96L41 97L40 96M48 96L49 97L48 96z"/>
<path style="fill:#6a6a6e; stroke:none;" d="M56 96L57 97L56 96z"/>
<path style="fill:#679541; stroke:none;" d="M70 96L71 97L70 96z"/>
<path style="fill:#6a6a6e; stroke:none;" d="M114.333 96.6667L114.667 97.3333L114.333 96.6667z"/>
<path style="fill:#a6b3a0; stroke:none;" d="M115 96L116 97L115 96M122 96L123 97L122 96M138 96L139 97L138 96M147 96L148 97L147 96z"/>
<path style="fill:#6a6a6e; stroke:none;" d="M155 96L155 114L156 114L155 96z"/>
<path style="fill:#a6b3a0; stroke:none;" d="M165 96L166 97L165 96z"/>
<path style="fill:#679541; stroke:none;" d="M183 96L184 97L183 96z"/>
<path style="fill:#6a6a6e; stroke:none;" d="M190 96L191 97L190 96z"/>
<path style="fill:#a6b3a0; stroke:none;" d="M198 96L199 97L198 96z"/>
<path style="fill:#679541; stroke:none;" d="M26 97L27 98L26 97z"/>
<path style="fill:#a6b3a0; stroke:none;" d="M39 97L40 98L39 97M61.6667 97.3333L62.3333 97.6667L61.6667 97.3333z"/>
<path style="fill:#eeedf4; stroke:none;" d="M63.0031 97.9167C54.3679 98.6756 54.8331 118.21 63.9861 116.623C72.3269 115.178 71.8892 97.1356 63.0031 97.9167z"/>
<path style="fill:#a6b3a0; stroke:none;" d="M64.6667 97.3333L65.3333 97.6667L64.6667 97.3333z"/>
<path style="fill:#6a6a6e; stroke:none;" d="M71 97L72 98L71 97z"/>
<path style="fill:#a6b3a0; stroke:none;" d="M83 97L84 98L83 97z"/>
<path style="fill:#679541; stroke:none;" d="M90 97L91 98L90 97z"/>
<path style="fill:#a6b3a0; stroke:none;" d="M91 97L91 98L94 98L91 97z"/>
<path style="fill:#6a6a6e; stroke:none;" d="M94 97L95 98L94 97M121 97L122 98L121 97z"/>
<path style="fill:#a6b3a0; stroke:none;" d="M128 97L129 98L128 97z"/>
<path style="fill:#eeedf4; stroke:none;" d="M129.054 97.8009C121.091 100.355 122.533 120.185 131.957 117.338C140.075 114.885 138.425 94.7951 129.054 97.8009z"/>
<path style="fill:#6a6a6e; stroke:none;" d="M133 97L134 98L133 97z"/>
<path style="fill:#a6b3a0; stroke:none;" d="M139 97L140 98L139 97z"/>
<path style="fill:#6a6a6e; stroke:none;" d="M166 97L167 98L166 97z"/>
<path style="fill:#a6b3a0; stroke:none;" d="M182 97L183 98L182 97z"/>
<path style="fill:#6a6a6e; stroke:none;" d="M187 97L186 99L187 97z"/>
<path style="fill:#eeedf4; stroke:none;" d="M199 111L200 111L200 100L199 100L194 104C193.804 98.0434 186.091 95.2246 186.921 100.954C187.546 105.265 196.238 107.778 199 111z"/>
<path style="fill:#a6b3a0; stroke:none;" d="M26 98L27 99L26 98M29 98L30 99L29 98M42 98L43 99L42 98z"/>
<path style="fill:#6a6a6e; stroke:none;" d="M59 98L60 99L59 98M72 98L73 99L72 98z"/>
<path style="fill:#a6b3a0; stroke:none;" d="M88 98L87 100L88 98z"/>
<path style="fill:#eeedf4; stroke:none;" d="M89.1443 99.0285C82.4748 102.878 85.1233 119.822 93.8526 114.816C99.6646 111.484 98.4112 93.6795 89.1443 99.0285z"/>
<path style="fill:#a6b3a0; stroke:none;" d="M96 98L97 99L96 98M120 98L121 99L120 98z"/>
<path style="fill:#6a6a6e; stroke:none;" d="M126 98L127 99L126 98z"/>
<path style="fill:#a6b3a0; stroke:none;" d="M134 98L135 99L134 98M140 98L141 99L140 98M147 98L148 99L147 98z"/>
<path style="fill:#6a6a6e; stroke:none;" d="M148.667 98.3333L149.333 98.6667L148.667 98.3333z"/>
<path style="fill:#a6b3a0; stroke:none;" d="M166 98L167 99L166 98M199.333 98.6667L199.667 99.3333L199.333 98.6667M20 99L21 100L20 99M30 99L30 100L33 100L30 99M38 99L39 100L38 99M44.3333 99.6667L44.6667 100.333L44.3333 99.6667z"/>
<path style="fill:#6a6a6e; stroke:none;" d="M53 99L54 100L53 99z"/>
<path style="fill:#a6b3a0; stroke:none;" d="M73 99L74 100L73 99z"/>
<path style="fill:#6a6a6e; stroke:none;" d="M82 99L83 100L82 99z"/>
<path style="fill:#a6b3a0; stroke:none;" d="M114 99L115 100L114 99z"/>
<path style="fill:#6a6a6e; stroke:none;" d="M125 99L126 100L125 99M135 99L136 100L135 99z"/>
<path style="fill:#a6b3a0; stroke:none;" d="M150 99L150 114L151 114L150 99M181 99L182 100L181 99M194.333 99.6667L194.667 100.333L194.333 99.6667z"/>
<path style="fill:#6a6a6e; stroke:none;" d="M25 100L26 101L25 100M38 100L39 101L38 100z"/>
<path style="fill:#679541; stroke:none;" d="M68 100L69 101L68 100z"/>
<path style="fill:#a6b3a0; stroke:none;" d="M81 100L82 101L81 100z"/>
<path style="fill:#6a6a6e; stroke:none;" d="M86 100L87 101L86 100M119 100L120 101L119 100M141 100L142 101L141 100M181.333 100.667L181.667 101.333L181.333 100.667z"/>
<path style="fill:#679541; stroke:none;" d="M19 101L20 102L19 101z"/>
<path style="fill:#a6b3a0; stroke:none;" d="M25 101L26 102L25 101z"/>
<path style="fill:#6a6a6e; stroke:none;" d="M39 101L40 102L39 101M44 101L45 102L44 101M48 101L49 102L48 101M52 101L53 102L52 101M57 101L58 102L57 101z"/>
<path style="fill:#a6b3a0; stroke:none;" d="M74 101L75 102L74 101z"/>
<path style="fill:#6a6a6e; stroke:none;" d="M113 101L114 102L113 101z"/>
<path style="fill:#a6b3a0; stroke:none;" d="M136 101L137 102L136 101z"/>
<path style="fill:#6a6a6e; stroke:none;" d="M167 101L168 102L167 101M194 101L195 102L194 101z"/>
<path style="fill:#a6b3a0; stroke:none;" d="M18 102L19 103L18 102z"/>
<path style="fill:#6a6a6e; stroke:none;" d="M24 102L25 103L24 102z"/>
<path style="fill:#a6b3a0; stroke:none;" d="M43 102L44 103L43 102z"/>
<path style="fill:#6a6a6e; stroke:none;" d="M47 102L48 103L47 102z"/>
<path style="fill:#a6b3a0; stroke:none;" d="M57 102L58 103L57 102z"/>
<path style="fill:#6a6a6e; stroke:none;" d="M69 102L70 103L69 102M74 102L75 103L74 102z"/>
<path style="fill:#a6b3a0; stroke:none;" d="M80 102L81 103L80 102z"/>
<path style="fill:#6a6a6e; stroke:none;" d="M85 102L86 103L85 102z"/>
<path style="fill:#a6b3a0; stroke:none;" d="M118 102L119 103L118 102M124 102L125 103L124 102z"/>
<path style="fill:#6a6a6e; stroke:none;" d="M142 102L143 103L142 102z"/>
<path style="fill:#679541; stroke:none;" d="M167 102L168 103L167 102z"/>
<path style="fill:#a6b3a0; stroke:none;" d="M181 102L182 103L181 102z"/>
<path style="fill:#6a6a6e; stroke:none;" d="M186 102L187 103L186 102z"/>
<path style="fill:#a6b3a0; stroke:none;" d="M198 102L199 103L198 102M16 103L17 104L16 103z"/>
<path style="fill:#6a6a6e; stroke:none;" d="M23 103L24 104L23 103z"/>
<path style="fill:#679541; stroke:none;" d="M43 103L44 104L43 103z"/>
<path style="fill:#a6b3a0; stroke:none;" d="M46 103L47 104L46 103M51 103L52 104L51 103M69 103L70 104L69 103z"/>
<path style="fill:#6a6a6e; stroke:none;" d="M80 103L81 104L80 103z"/>
<path style="fill:#a6b3a0; stroke:none;" d="M85.3333 103.667L85.6667 104.333L85.3333 103.667z"/>
<path style="fill:#6a6a6e; stroke:none;" d="M118 103L119 104L118 103z"/>
<path style="fill:#a6b3a0; stroke:none;" d="M167 103L167 109L168 109L167 103z"/>
<path style="fill:#6a6a6e; stroke:none;" d="M187 103L188 104L187 103M196 103L197 104L196 103z"/>
<path style="fill:#a6b3a0; stroke:none;" d="M197 103L198 104L197 103z"/>
<path style="fill:#6a6a6e; stroke:none;" d="M22 104L23 105L22 104z"/>
<path style="fill:#679541; stroke:none;" d="M38 104L39 105L38 104M51 104L52 105L51 104z"/>
<path style="fill:#6a6a6e; stroke:none;" d="M110 104L111 105L110 104M123 104L123 112L124 112L123 104M137 104L138 105L137 104M182 104L183 105L182 104z"/>
<path style="fill:#a6b3a0; stroke:none;" d="M189 104L190 105L189 104M10 105L11 106L10 105z"/>
<path style="fill:#6a6a6e; stroke:none;" d="M20 105L21 106L20 105z"/>
<path style="fill:#a6b3a0; stroke:none;" d="M38 105L39 106L38 105z"/>
<path style="fill:#6a6a6e; stroke:none;" d="M51 105L51 110L52 110L51 105M56 105L56 110L57 110L56 105z"/>
<path style="fill:#a6b3a0; stroke:none;" d="M75 105L75 110L76 110L75 105z"/>
<path style="fill:#679541; stroke:none;" d="M137 105L138 106L137 105z"/>
<path style="fill:#a6b3a0; stroke:none;" d="M182 105L183 106L182 105M191 105L192 106L191 105M11 106L12 107L11 106z"/>
<path style="fill:#6a6a6e; stroke:none;" d="M12.6667 106.333L13.3333 106.667L12.6667 106.333M16.6667 106.333L17.3333 106.667L16.6667 106.333z"/>
<path style="fill:#a6b3a0; stroke:none;" d="M18 106L19 107L18 106M137 106L137 110L138 110L137 106z"/>
<path style="fill:#6a6a6e; stroke:none;" d="M193 106L194 107L193 106z"/>
<path style="fill:#a6b3a0; stroke:none;" d="M79 107L79 110L80 110L79 107M113 107L113 112L114 112L113 107M143.333 107.667L143.667 108.333L143.333 107.667z"/>
<path style="fill:#6a6a6e; stroke:none;" d="M185 107L186 108L185 107M195 107L196 108L195 107M112.333 108.667L112.667 109.333L112.333 108.667M187 108L188 109L187 108z"/>
<path style="fill:#a6b3a0; stroke:none;" d="M197 108L198 109L197 108z"/>
<path style="fill:#6a6a6e; stroke:none;" d="M167.333 109.667L167.667 110.333L167.333 109.667z"/>
<path style="fill:#a6b3a0; stroke:none;" d="M189 109L190 110L189 109M198 109L199 110L198 109M51.3333 110.667L51.6667 111.333L51.3333 110.667M85 110L86 111L85 110z"/>
<path style="fill:#6a6a6e; stroke:none;" d="M137.333 110.667L137.667 111.333L137.333 110.667z"/>
<path style="fill:#a6b3a0; stroke:none;" d="M184.667 110.333L185.333 110.667L184.667 110.333M191 110L192 111L191 110M69 111L70 112L69 111z"/>
<path style="fill:#679541; stroke:none;" d="M85 111L86 112L85 111z"/>
<path style="fill:#a6b3a0; stroke:none;" d="M109 111L109 114L110 114L109 111z"/>
<path style="fill:#6a6a6e; stroke:none;" d="M118 111L119 112L118 111M182 111L183 112L182 111M193 111L194 112L193 111M199 111L200 112L199 111z"/>
<path style="fill:#a6b3a0; stroke:none;" d="M57 112L58 113L57 112z"/>
<path style="fill:#6a6a6e; stroke:none;" d="M69 112L70 113L69 112M74 112L75 113L74 112M85 112L86 113L85 112M112 112L113 115L112 112z"/>
<path style="fill:#a6b3a0; stroke:none;" d="M118 112L119 113L118 112z"/>
<path style="fill:#6a6a6e; stroke:none;" d="M142 112L143 113L142 112z"/>
<path style="fill:#a6b3a0; stroke:none;" d="M166 112L167 113L166 112z"/>
<path style="fill:#6a6a6e; stroke:none;" d="M181 112L182 113L181 112z"/>
<path style="fill:#a6b3a0; stroke:none;" d="M194 112L195 113L194 112z"/>
<path style="fill:#6a6a6e; stroke:none;" d="M52 113L53 114L52 113M57 113L58 114L57 113z"/>
<path style="fill:#a6b3a0; stroke:none;" d="M74 113L75 114L74 113z"/>
<path style="fill:#6a6a6e; stroke:none;" d="M80 113L81 114L80 113z"/>
<path style="fill:#a6b3a0; stroke:none;" d="M86 113L87 114L86 113z"/>
<path style="fill:#679541; stroke:none;" d="M124 113L125 114L124 113z"/>
<path style="fill:#a6b3a0; stroke:none;" d="M136 113L137 114L136 113z"/>
<path style="fill:#6a6a6e; stroke:none;" d="M166 113L167 114L166 113M185.333 113.667L185.667 114.333L185.333 113.667M95 114L96 115L95 114M101 114L102 115L101 114M110 114L111 115L110 114M119 114L120 115L119 114z"/>
<path style="fill:#a6b3a0; stroke:none;" d="M10 115L11 116L10 115z"/>
<path style="fill:#6a6a6e; stroke:none;" d="M53 115L54 116L53 115z"/>
<path style="fill:#a6b3a0; stroke:none;" d="M67 115L68 116L67 115M73 115L74 116L73 115z"/>
<path style="fill:#6a6a6e; stroke:none;" d="M81 115L82 116L81 115M87 115L88 116L87 115z"/>
<path style="fill:#a6b3a0; stroke:none;" d="M93 115L94 116L93 115z"/>
<path style="fill:#6a6a6e; stroke:none;" d="M125 115L126 116L125 115z"/>
<path style="fill:#a6b3a0; stroke:none;" d="M135 115L136 116L135 115M141 115L142 116L141 115z"/>
<path style="fill:#6a6a6e; stroke:none;" d="M156 115L157 116L156 115M199 115L200 116L199 115M3 116L4 117L3 116z"/>
<path style="fill:#a6b3a0; stroke:none;" d="M32 116L33 117L32 116M38 116L39 117L38 116z"/>
<path style="fill:#6a6a6e; stroke:none;" d="M54 116L55 117L54 116M66 116L67 117L66 116M72 116L73 117L72 116M89 116L89 117L92 117L89 116z"/>
<path style="fill:#a6b3a0; stroke:none;" d="M96 116L97 117L96 116z"/>
<path style="fill:#6a6a6e; stroke:none;" d="M97.3333 116.667L97.6667 117.333L97.3333 116.667z"/>
<path style="fill:#a6b3a0; stroke:none;" d="M102.667 116.333L103.333 116.667L102.667 116.333z"/>
<path style="fill:#6a6a6e; stroke:none;" d="M104 116L105 117L104 116M111 116L112 117L111 116z"/>
<path style="fill:#a6b3a0; stroke:none;" d="M112 116L112 119L113 119L112 116M120 116L121 117L120 116M126 116L127 117L126 116M134 116L135 117L134 116z"/>
<path style="fill:#6a6a6e; stroke:none;" d="M140 116L141 117L140 116M151 116L152 117L151 116z"/>
<path style="fill:#a6b3a0; stroke:none;" d="M157 116L158 117L157 116z"/>
<path style="fill:#6a6a6e; stroke:none;" d="M167.333 116.667L167.667 117.333L167.333 116.667z"/>
<path style="fill:#a6b3a0; stroke:none;" d="M172 116L173 117L172 116M175 116L176 117L175 116M186 116L187 117L186 116M194 116L195 117L194 116M199 116L200 117L199 116M0 117L1 118L0 117z"/>
<path style="fill:#6a6a6e; stroke:none;" d="M1 117L2 118L1 117z"/>
<path style="fill:#679541; stroke:none;" d="M11 117L12 118L11 117z"/>
<path style="fill:#a6b3a0; stroke:none;" d="M31 117L32 118L31 117M39 117L40 118L39 117z"/>
<path style="fill:#6a6a6e; stroke:none;" d="M55 117L56 118L55 117M61 117L61 118L65 118L61 117z"/>
<path style="fill:#a6b3a0; stroke:none;" d="M71 117L72 118L71 117M82 117L83 118L82 117M95 117L96 118L95 117z"/>
<path style="fill:#6a6a6e; stroke:none;" d="M109.333 117.667L109.667 118.333L109.333 117.667M121 117L122 118L121 117z"/>
<path style="fill:#679541; stroke:none;" d="M127 117L128 118L127 117z"/>
<path style="fill:#6a6a6e; stroke:none;" d="M133 117L134 118L133 117M139 117L140 118L139 117M158.667 117.333L159.333 117.667L158.667 117.333z"/>
<path style="fill:#a6b3a0; stroke:none;" d="M160 117L161 118L160 117z"/>
<path style="fill:#6a6a6e; stroke:none;" d="M161.667 117.333L162.333 117.667L161.667 117.333z"/>
<path style="fill:#a6b3a0; stroke:none;" d="M166 117L167 118L166 117z"/>
<path style="fill:#6a6a6e; stroke:none;" d="M173.667 117.333L174.333 117.667L173.667 117.333M176 117L177 118L176 117z"/>
<path style="fill:#a6b3a0; stroke:none;" d="M181 117L182 118L181 117M187 117L188 118L187 117M193 117L194 118L193 117z"/>
<path style="fill:#6a6a6e; stroke:none;" d="M0 118L1 119L0 118M39 118L31 119L31 120L40 119L39 118z"/>
<path style="fill:#a6b3a0; stroke:none;" d="M56 118L57 119L56 118M70 118L71 119L70 118M83 118L84 119L83 118M94 118L95 119L94 118M105 118L106 119L105 118M108 118L109 119L108 118z"/>
<path style="fill:#6a6a6e; stroke:none;" d="M111 118L112 119L111 118z"/>
<path style="fill:#679541; stroke:none;" d="M122 118L123 119L122 118z"/>
<path style="fill:#6a6a6e; stroke:none;" d="M130 118L131 119L130 118M138 118L139 119L138 118z"/>
<path style="fill:#a6b3a0; stroke:none;" d="M152 118L153 119L152 118z"/>
<path style="fill:#6a6a6e; stroke:none;" d="M165 118L166 119L165 118z"/>
<path style="fill:#679541; stroke:none;" d="M167 118L168 119L167 118z"/>
<path style="fill:#a6b3a0; stroke:none;" d="M176 118L177 119L176 118z"/>
<path style="fill:#6a6a6e; stroke:none;" d="M182 118L183 119L182 118M189 118L189 119L192 119L189 118M197 118L198 119L197 118M1 119L1 120L12 120L1 119z"/>
<path style="fill:#a6b3a0; stroke:none;" d="M30 119L31 120L30 119M39 119L40 120L39 119z"/>
<path style="fill:#679541; stroke:none;" d="M58 119L59 120L58 119z"/>
<path style="fill:#6a6a6e; stroke:none;" d="M67 119L68 120L67 119z"/>
<path style="fill:#a6b3a0; stroke:none;" d="M68 119L69 120L68 119z"/>
<path style="fill:#6a6a6e; stroke:none;" d="M85 119L86 120L85 119z"/>
<path style="fill:#a6b3a0; stroke:none;" d="M92 119L93 120L92 119M98 119L99 120L98 119z"/>
<path style="fill:#6a6a6e; stroke:none;" d="M103 119L104 120L103 119z"/>
<path style="fill:#a6b3a0; stroke:none;" d="M123 119L124 120L123 119M137 119L138 120L137 119M153 119L154 120L153 119M164 119L165 120L164 119M175 119L176 120L175 119z"/>
<path style="fill:#6a6a6e; stroke:none;" d="M183 119L184 120L183 119z"/>
<path style="fill:#679541; stroke:none;" d="M196 119L197 120L196 119z"/>
<path style="fill:#a6b3a0; stroke:none;" d="M61 120L61 121L65 121L61 120M87 122L90 120L87 122M100.667 120.333L101.333 120.667L100.667 120.333M125 120L126 121L125 120z"/>
<path style="fill:#6a6a6e; stroke:none;" d="M126 120L127 121L126 120M134 120L135 121L134 120z"/>
<path style="fill:#a6b3a0; stroke:none;" d="M135 120L136 121L135 120M154 120L155 121L154 120z"/>
<path style="fill:#6a6a6e; stroke:none;" d="M155 120L156 121L155 120z"/>
<path style="fill:#a6b3a0; stroke:none;" d="M162 120L163 121L162 120M168 120L169 121L168 120z"/>
<path style="fill:#6a6a6e; stroke:none;" d="M173 120L174 121L173 120z"/>
<path style="fill:#a6b3a0; stroke:none;" d="M185 120L186 121L185 120z"/>
<path style="fill:#6a6a6e; stroke:none;" d="M193 120L194 121L193 120z"/>
<path style="fill:#a6b3a0; stroke:none;" d="M194 120L195 121L194 120z"/>
<path style="fill:#679541; stroke:none;" d="M85 122L86 125L96 125L97 123L97 122L93 123L85 122z"/>
<path style="fill:#a6b3a0; stroke:none;" d="M94 121L95 122L94 121M107.333 121.667L107.667 122.333L107.333 121.667M111.333 121.667L111.667 122.333L111.333 121.667M84 122L85 123L84 122z"/>
<path style="fill:#6a6a6e; stroke:none;" d="M86.6667 122.333L87.3333 122.667L86.6667 122.333M88 123L88 124L93 124L88 123M93.6667 122.333L94.3333 122.667L93.6667 122.333z"/>
<path style="fill:#a6b3a0; stroke:none;" d="M97 122L98 123L97 122z"/>
<path style="fill:#6a6a6e; stroke:none;" d="M110.333 122.667L110.667 123.333L110.333 122.667z"/>
<path style="fill:#a6b3a0; stroke:none;" d="M82 123L81 125L82 123z"/>
<path style="fill:#679541; stroke:none;" d="M83 123L79 126L81 128C75.4675 131.32 82.8159 144.454 77 143L81 144L82 125L85 126L83 123z"/>
<path style="fill:#6a6a6e; stroke:none;" d="M84 123L86 125L86 123L84 123M95 123L95 124L102 126L95 123z"/>
<path style="fill:#679541; stroke:none;" d="M99 123L100 124L99 123z"/>
<path style="fill:#a6b3a0; stroke:none;" d="M100 123L101 124L100 123M87.6667 124.333L88.3333 124.667L87.6667 124.333M94 124L95 125L94 124z"/>
<path style="fill:#679541; stroke:none;" d="M101 124L100 127L111 130L110 135C105.288 135.085 99.0088 129.688 96 134L103 135L103 137L105 136C107.974 139.381 112.817 137.324 115 134C119.062 134.268 122.634 133.467 125 130L127 131C127.898 125.124 122.384 126.233 118 126L119 129L125 128L125 129L111 133L113 130C110.431 127.411 108.54 125.083 105 127L104 127L101 124z"/>
<path style="fill:#a6b3a0; stroke:none;" d="M102 124L103 125L102 124z"/>
<path style="fill:#6a6a6e; stroke:none;" d="M107 124L110 126L107 124z"/>
<path style="fill:#a6b3a0; stroke:none;" d="M123 124L124 125L123 124M79 125L80 126L79 125z"/>
<path style="fill:#6a6a6e; stroke:none;" d="M82.6667 125.333L83.3333 125.667L82.6667 125.333z"/>
<path style="fill:#a6b3a0; stroke:none;" d="M85 125L86 126L85 125M97 125L98 126L97 125z"/>
<path style="fill:#679541; stroke:none;" d="M98 125L99 126L98 125z"/>
<path style="fill:#a6b3a0; stroke:none;" d="M104 125L105 126L104 125M106 125L107 126L106 125M110 125L111 126L110 125M120 125L121 126L120 125z"/>
<path style="fill:#6a6a6e; stroke:none;" d="M121 125L121 126L125 126L121 125z"/>
<path style="fill:#a6b3a0; stroke:none;" d="M125 125L126 126L125 125z"/>
<path style="fill:#6a6a6e; stroke:none;" d="M81 126L82 127L81 126z"/>
<path style="fill:#a6b3a0; stroke:none;" d="M83 126L84 127L83 126M99 126L100 127L99 126z"/>
<path style="fill:#6a6a6e; stroke:none;" d="M104 126L105 127L104 126z"/>
<path style="fill:#a6b3a0; stroke:none;" d="M117 126L118 127L117 126z"/>
<path style="fill:#6a6a6e; stroke:none;" d="M119.667 126.333L120.333 126.667L119.667 126.333z"/>
<path style="fill:#a6b3a0; stroke:none;" d="M78 127L78 143L79 143L78 127z"/>
<path style="fill:#6a6a6e; stroke:none;" d="M79 127L79 129L81 127L79 127z"/>
<path style="fill:#a6b3a0; stroke:none;" d="M82 127L83 128L82 127M101 127L102 128L101 127M115 127L114 130L118 132L118 131L115 127z"/>
<path style="fill:#679541; stroke:none;" d="M116 127L117 128L116 127z"/>
<path style="fill:#6a6a6e; stroke:none;" d="M115 130L119 127L115 130M121 127L122 128L121 127M125 127L126 128L125 127M128 130C132.065 129.646 133.354 130.935 133 135C138.561 131.796 129.465 123.165 128 130z"/>
<path style="fill:#679541; stroke:none;" d="M132 127L134 129L132 127z"/>
<path style="fill:#a6b3a0; stroke:none;" d="M133 127L134 128L133 127M81 128L80 146L81 146L81 128z"/>
<path style="fill:#6a6a6e; stroke:none;" d="M105 128L106 129L105 128z"/>
<path style="fill:#a6b3a0; stroke:none;" d="M120 128L121 129L120 128z"/>
<path style="fill:#eeedf4; stroke:none;" d="M117 130L117 131L124 129L117 130z"/>
<path style="fill:#a6b3a0; stroke:none;" d="M124 128L125 129L124 128M106 129L107 130L106 129z"/>
<path style="fill:#6a6a6e; stroke:none;" d="M107 129L108 130L107 129z"/>
<path style="fill:#679541; stroke:none;" d="M116.667 129.333L117.333 129.667L116.667 129.333z"/>
<path style="fill:#a6b3a0; stroke:none;" d="M118 129L119 130L118 129M122 129L123 130L122 129M129 129L130 130L129 129z"/>
<path style="fill:#679541; stroke:none;" d="M130 129L130 130L133 137C134.031 133.135 134.156 130.369 130 129M134 129L135 130L134 129z"/>
<path style="fill:#a6b3a0; stroke:none;" d="M96 130L95 133L96 133L96 130M108 130L109 131L108 130z"/>
<path style="fill:#6a6a6e; stroke:none;" d="M109.667 130.333L110.333 130.667L109.667 130.333M125 130L126 131L125 130z"/>
<path style="fill:#a6b3a0; stroke:none;" d="M127 130L128 131L127 130M135 130L135 134L136 134L135 130z"/>
<path style="fill:#6a6a6e; stroke:none;" d="M96 131L97 132L96 131z"/>
<path style="fill:#a6b3a0; stroke:none;" d="M99 131L100 132L99 131z"/>
<path style="fill:#6a6a6e; stroke:none;" d="M111 131L111 133L113 133L113 131L111 131z"/>
<path style="fill:#a6b3a0; stroke:none;" d="M113.333 131.667L113.667 132.333L113.333 131.667M125 131L126 132L125 131M101 132L102 133L101 132M115 132L116 133L115 132M132 132L133 133L132 132z"/>
<path style="fill:#6a6a6e; stroke:none;" d="M97 133L97 134L101 135L101 134L97 133z"/>
<path style="fill:#a6b3a0; stroke:none;" d="M103 133L104 134L103 133M120 133L121 134L120 133M98 134L99 135L98 134z"/>
<path style="fill:#6a6a6e; stroke:none;" d="M103 134L103 135L107 136L107 135L103 134z"/>
<path style="fill:#a6b3a0; stroke:none;" d="M105 134L106 135L105 134z"/>
<path style="fill:#6a6a6e; stroke:none;" d="M115.667 134.333L116.333 134.667L115.667 134.333z"/>
<path style="fill:#a6b3a0; stroke:none;" d="M118 134L119 135L118 134M130 134L131 135L130 134M100 135L101 136L100 135z"/>
<path style="fill:#6a6a6e; stroke:none;" d="M102 135L103 136L102 135z"/>
<path style="fill:#a6b3a0; stroke:none;" d="M115 135L116 136L115 135z"/>
<path style="fill:#679541; stroke:none;" d="M128 135L107 144L107 145L107 146L112 146L111 144L112 144L117 144L116 142L117 142L125 138L128 139L130 138L128 135z"/>
<path style="fill:#6a6a6e; stroke:none;" d="M129 135L129 137L132 137L132 135L129 135M80 136L81 137L80 136z"/>
<path style="fill:#a6b3a0; stroke:none;" d="M102 136L103 137L102 136z"/>
<path style="fill:#6a6a6e; stroke:none;" d="M104 136L105 137L104 136z"/>
<path style="fill:#a6b3a0; stroke:none;" d="M113 136L114 137L113 136M125 136L126 137L125 136z"/>
<path style="fill:#6a6a6e; stroke:none;" d="M127 136L128 137L127 136z"/>
<path style="fill:#a6b3a0; stroke:none;" d="M133 136L134 137L133 136z"/>
<path style="fill:#6a6a6e; stroke:none;" d="M79 137L80 138L79 137M109 137L110 138L109 137z"/>
<path style="fill:#a6b3a0; stroke:none;" d="M111 137L112 138L111 137z"/>
<path style="fill:#6a6a6e; stroke:none;" d="M128 137L129 138L128 137z"/>
<path style="fill:#a6b3a0; stroke:none;" d="M130 137L131 138L130 137M107 138L108 139L107 138M120 138L121 139L120 138z"/>
<path style="fill:#6a6a6e; stroke:none;" d="M125.667 138.333L126.333 138.667L125.667 138.333z"/>
<path style="fill:#a6b3a0; stroke:none;" d="M128 138L129 139L128 138z"/>
<path style="fill:#6a6a6e; stroke:none;" d="M79 139L80 140L79 139z"/>
<path style="fill:#a6b3a0; stroke:none;" d="M118 139L119 140L118 139M126 139L127 140L126 139M83 140L83 143L84 143L83 140z"/>
<path style="fill:#6a6a6e; stroke:none;" d="M84 140L87 143L84 140z"/>
<path style="fill:#a6b3a0; stroke:none;" d="M86 140L87 141L86 140M116 140L117 141L116 140z"/>
<path style="fill:#6a6a6e; stroke:none;" d="M120 142L123 141L120 142z"/>
<path style="fill:#a6b3a0; stroke:none;" d="M123 140L124 141L123 140z"/>
<path style="fill:#679541; stroke:none;" d="M87 141L84 142L84 143L90 142L87 141z"/>
<path style="fill:#a6b3a0; stroke:none;" d="M88 141L89 142L88 141M113 141L114 142L113 141M121 141L122 142L121 141z"/>
<path style="fill:#6a6a6e; stroke:none;" d="M80 142L81 143L80 142M88 142L89 143L88 142z"/>
<path style="fill:#a6b3a0; stroke:none;" d="M90 142L91 143L90 142M111 142L112 143L111 142z"/>
<path style="fill:#6a6a6e; stroke:none;" d="M116.667 142.333L117.333 142.667L116.667 142.333z"/>
<path style="fill:#a6b3a0; stroke:none;" d="M119 142L120 143L119 142M74 143L75 144L74 143z"/>
<path style="fill:#6a6a6e; stroke:none;" d="M75 143C75.6544 146.054 77.0066 145.936 80 146L80 145L75 143M78 143L79 144L78 143z"/>
<path style="fill:#a6b3a0; stroke:none;" d="M85 143L86 144L85 143z"/>
<path style="fill:#6a6a6e; stroke:none;" d="M89 145L92 145L91 143L89 145z"/>
<path style="fill:#679541; stroke:none;" d="M91 143L90 146L107 148L106 145L101 148L100 148L96 147L91 143z"/>
<path style="fill:#a6b3a0; stroke:none;" d="M92 143L93 144L92 143z"/>
<path style="fill:#6a6a6e; stroke:none;" d="M115 143L116 144L115 143z"/>
<path style="fill:#679541; stroke:none;" d="M74 144L75 145L74 144z"/>
<path style="fill:#6a6a6e; stroke:none;" d="M80 144L81 145L80 144z"/>
<path style="fill:#a6b3a0; stroke:none;" d="M94 144L95 145L94 144M106 144L107 145L106 144z"/>
<path style="fill:#6a6a6e; stroke:none;" d="M108 144L109 145L108 144M111.667 144.333L112.333 144.667L111.667 144.333z"/>
<path style="fill:#a6b3a0; stroke:none;" d="M114 144L115 145L114 144M74 145L75 146L74 145M89 145L90 146L89 145M96 145L97 146L96 145M104 145L105 146L104 145z"/>
<path style="fill:#6a6a6e; stroke:none;" d="M106 145L110 146L110 145L106 145M96.6667 146.333L97.3333 146.667L96.6667 146.333z"/>
<path style="fill:#a6b3a0; stroke:none;" d="M100 146L101 147L100 146z"/>
<path style="fill:#6a6a6e; stroke:none;" d="M104 146L105 147L104 146z"/>
<path style="fill:#a6b3a0; stroke:none;" d="M109 146L110 147L109 146M94 147L95 148L94 147z"/>
<path style="fill:#6a6a6e; stroke:none;" d="M95 147L96 148L95 147M100 147L101 148L100 147M103 147L104 148L103 147M105 147L106 148L105 147z"/>
<path style="fill:#a6b3a0; stroke:none;" d="M107 147L108 148L107 147M96 148L97 149L96 148z"/>
<path style="fill:#6a6a6e; stroke:none;" d="M98.6667 148.333L99.3333 148.667L98.6667 148.333M101.667 148.333L102.333 148.667L101.667 148.333z"/>
<path style="fill:#a6b3a0; stroke:none;" d="M105 148L106 149L105 148M100 149L101 150L100 149z"/>
</svg>
